<svg width="91" height="113" fill="none" xmlns="http://www.w3.org/2000/svg"><path d="M85.644 0H5.356C2.403 0 0 2.33 0 5.193v102.614C0 110.671 2.403 113 5.356 113h82.112c.943 0 1.707-.741 1.707-1.655 0-.915-.764-1.656-1.707-1.656h-.117V98.574C89.47 97.882 91 95.938 91 93.654V5.193C91 2.33 88.597 0 85.644 0zm1.942 93.653c0 1.038-.872 1.883-1.942 1.883h-3.65c-.944 0-1.708.741-1.708 1.655s.764 1.656 1.707 1.656h1.943v3.765H9.006c-.943 0-1.708.742-1.708 1.656 0 .914.765 1.655 1.708 1.655h74.93v3.766H5.356c-1.07 0-1.942-.844-1.942-1.882v-7.078c0-1.038.872-1.882 1.942-1.882h69.34c.942 0 1.706-.741 1.706-1.656 0-.914-.764-1.655-1.707-1.655H10.713V12.271c0-.914-.764-1.656-1.707-1.656-.943 0-1.708.742-1.708 1.656v83.265H5.356c-.684 0-1.339.127-1.942.355V5.193c0-1.038.872-1.882 1.942-1.882h1.942v1.882c0 .915.765 1.656 1.708 1.656s1.707-.74 1.707-1.656V3.311h74.93c1.071 0 1.943.844 1.943 1.882v88.46z" fill="#2E8B42"/><path d="M63.747 35.384c-.372 0-.745.022-1.129.067-2.15-5.317-7.48-8.913-13.469-8.913-5.988 0-11.318 3.596-13.468 8.913a9.532 9.532 0 00-1.13-.067c-5.971 0-10.83 4.71-10.83 10.5 0 5.229 3.96 9.575 9.123 10.372v7.321c0 2.863 2.404 5.194 5.357 5.194h21.897c2.953 0 5.356-2.33 5.356-5.194v-7.32c5.164-.797 9.124-5.144 9.124-10.372 0-5.79-4.859-10.5-10.831-10.5zm-3.65 30.076H38.203c-1.072 0-1.943-.845-1.943-1.883v-1.883h25.78v1.883c-.001 1.038-.873 1.883-1.943 1.883zm3.65-12.384c-.943 0-1.707.741-1.707 1.655v3.652h-5.048l2.9-8.436c.299-.867-.185-1.805-1.08-2.094-.894-.289-1.86.18-2.16 1.047l-3.259 9.483h-2.537v-10.73c0-.913-.764-1.654-1.707-1.654-.942 0-1.707.741-1.707 1.655v10.729h-2.536l-3.26-9.483c-.298-.868-1.266-1.337-2.16-1.047-.895.289-1.378 1.227-1.08 2.094l2.9 8.436H36.26V54.73c0-.914-.764-1.655-1.707-1.655-4.09 0-7.416-3.226-7.416-7.191s3.326-7.191 7.416-7.191c.557 0 1.145.083 1.85.26.908.226 1.833-.296 2.076-1.172 1.3-4.671 5.687-7.934 10.671-7.934 4.985 0 9.373 3.263 10.672 7.934.243.876 1.17 1.398 2.075 1.171.706-.176 1.293-.26 1.85-.26 4.09 0 7.417 3.227 7.417 7.192 0 3.965-3.327 7.19-7.416 7.19zm0 21.229H34.552c-.943 0-1.708.742-1.708 1.656 0 .914.765 1.655 1.708 1.655h29.195c.943 0 1.707-.74 1.707-1.655 0-.914-.764-1.656-1.707-1.656zm-5.474 8.847H40.026c-.943 0-1.707.741-1.707 1.655s.764 1.655 1.707 1.655h18.247c.942 0 1.707-.741 1.707-1.655s-.764-1.655-1.707-1.655zm-23.729-62.15h29.21c2.95 0 5.35-2.327 5.35-5.2 0-2.86-2.4-5.187-5.35-5.187h-29.21c-2.949 0-5.349 2.327-5.349 5.2 0 2.86 2.4 5.187 5.35 5.187zm0-7.076h29.21c1.067 0 1.935.841 1.935 1.89 0 1.034-.868 1.876-1.935 1.876h-29.21c-1.066 0-1.934-.842-1.934-1.89 0-1.035.867-1.876 1.934-1.876zm-9.233 1.883c0-.914-.764-1.656-1.707-1.656H21.78c-.943 0-1.707.742-1.707 1.656 0 .914.764 1.655 1.707 1.655h1.825c.943 0 1.707-.741 1.707-1.655zm51.209-1.656h-1.825c-.942 0-1.707.742-1.707 1.656 0 .914.765 1.655 1.707 1.655h1.825c.943 0 1.707-.741 1.707-1.655s-.764-1.656-1.707-1.656z" fill="#2E8B42"/></svg>