<svg width="109" height="109" fill="none" xmlns="http://www.w3.org/2000/svg"><path d="M104.04 5.817C100.534 2.067 95.777 0 90.644 0H18.351C7.868 0-.655 9.138.055 19.593l3.199 47.15c.14 2.054 3.325 1.838 3.186-.216l-3.2-47.15C2.656 10.74 9.695 3.193 18.352 3.193h72.293c8.657 0 15.697 7.547 15.111 16.184l-4.906 72.3c-.537 7.923-7.175 14.13-15.11 14.13H23.257c-7.935 0-14.573-6.207-15.11-14.13L6.44 66.527c-.14-2.055-3.325-1.839-3.186.216l1.707 25.15C5.61 101.486 13.648 109 23.257 109h62.481c9.61 0 17.646-7.514 18.297-17.107l4.906-72.3c.348-5.129-1.393-10.02-4.901-13.776z" fill="#2E8B42"/><path d="M70.572 37.15c0 .881.715 1.596 1.597 1.596h6.386c.882 0 1.597-.715 1.597-1.597 0-14.145-11.508-25.653-25.653-25.653-14.146 0-25.654 11.508-25.654 25.653 0 .882.715 1.597 1.597 1.597H63.44c2.06 0 2.06-3.193 0-3.193h-7.733l-6.948-12.384c-1.007-1.796-3.792-.233-2.785 1.563l6.071 10.82h-19.95a22.36 22.36 0 015.268-12.907l2.192 2.191c1.456 1.457 3.714-.802 2.258-2.258l-2.217-2.217A22.48 22.48 0 0146.935 16l.797 2.975c.53 1.982 3.617 1.164 3.084-.827l-.806-3.008c2.8-.57 5.708-.6 8.52-.088l-.787 2.936c-.533 1.99 2.553 2.808 3.084.826l.795-2.966a22.454 22.454 0 017.397 4.179l-2.113 2.112c-1.456 1.456.802 3.714 2.258 2.258l2.137-2.137a22.372 22.372 0 015.602 13.292h-4.734c-.882 0-1.597.715-1.597 1.596zm-54.5-26.931a5.648 5.648 0 00-5.642 5.641 5.648 5.648 0 005.642 5.642c3.11 0 5.642-2.53 5.642-5.642a5.648 5.648 0 00-5.642-5.641zm0 8.09a2.451 2.451 0 01-2.448-2.449 2.451 2.451 0 012.448-2.448 2.451 2.451 0 012.448 2.448 2.45 2.45 0 01-2.448 2.449zm76.853 3.193a5.648 5.648 0 005.642-5.642c0-3.11-2.53-5.641-5.641-5.641a5.648 5.648 0 00-5.642 5.641 5.648 5.648 0 005.641 5.642zm0-8.09a2.451 2.451 0 012.449 2.448 2.451 2.451 0 01-2.448 2.449 2.451 2.451 0 01-2.449-2.449 2.451 2.451 0 012.448-2.448zM15.327 92.288c0 3.11 2.53 5.642 5.641 5.642s5.642-2.531 5.642-5.642c0-3.11-2.53-5.641-5.642-5.641a5.648 5.648 0 00-5.641 5.641zm5.641-2.448a2.451 2.451 0 012.449 2.448 2.451 2.451 0 01-2.449 2.448 2.451 2.451 0 01-2.448-2.448 2.451 2.451 0 012.448-2.448zm61.419 2.448a5.649 5.649 0 005.642 5.642 5.649 5.649 0 005.642-5.642 5.648 5.648 0 00-5.642-5.641 5.648 5.648 0 00-5.642 5.641zm5.642-2.448a2.451 2.451 0 012.448 2.448 2.451 2.451 0 01-2.448 2.448 2.451 2.451 0 01-2.448-2.448 2.451 2.451 0 012.448-2.448z" fill="#2E8B42"/></svg>