<svg viewBox="0 0 40 40" fill="none" xmlns="http://www.w3.org/2000/svg"><rect width="40" height="40" rx="3.203" fill="#DC4E41"/><path d="M7.205 20.01c-.07 3.338 2.268 6.523 5.484 7.562 3.028 1 6.753.252 8.768-2.3 1.472-1.787 1.806-4.17 1.647-6.396-2.594-.023-5.188-.015-7.778-.011-.004.908 0 1.814.004 2.723 1.553.042 3.106.022 4.66.053-.393 1.322-1.286 2.551-2.641 3.028-2.617 1.135-5.957-.347-6.78-3.047-.994-2.586.633-5.706 3.32-6.458 1.666-.577 3.382.072 4.808.924a36.43 36.43 0 002.061-2.093c-1.62-1.332-3.7-2.15-5.84-1.97-4.198.049-7.872 3.86-7.713 7.985zm20.947-3.437c-.007.76-.015 1.523-.02 2.283-.776.008-1.549.012-2.321.015v2.277c.773.003 1.55.007 2.322.015.008.76.008 1.52.015 2.284.77 0 1.542-.004 2.315 0 .004-.764.007-1.524.015-2.288l2.323-.011v-2.276c-.773-.004-1.55-.008-2.323-.015l-.015-2.284h-2.31z" fill="#DC4E41"/><path d="M7.205 20.01c-.159-4.125 3.514-7.936 7.713-7.986 2.14-.18 4.22.638 5.84 1.97a36.565 36.565 0 01-2.062 2.094c-1.425-.852-3.142-1.501-4.808-.925-2.687.753-4.314 3.873-3.32 6.458.824 2.7 4.163 4.182 6.78 3.048 1.355-.477 2.249-1.707 2.641-3.028-1.553-.03-3.107-.012-4.66-.054-.004-.909-.007-1.814-.004-2.723 2.59-.004 5.184-.011 7.779.011.159 2.227-.175 4.61-1.647 6.397-2.016 2.551-5.74 3.3-8.769 2.3-3.215-1.04-5.553-4.224-5.483-7.562zm20.947-3.437h2.31l.017 2.283c.772.008 1.549.012 2.322.015v2.277l-2.323.011c-.007.764-.011 1.524-.015 2.288-.773-.004-1.546 0-2.315 0-.007-.764-.007-1.524-.015-2.284-.773-.008-1.55-.012-2.322-.016v-2.276c.773-.004 1.545-.008 2.322-.015.004-.76.011-1.523.02-2.284z" fill="#fff"/></svg>