<svg viewBox="0 0 40 40" fill="none" xmlns="http://www.w3.org/2000/svg"><rect width="40" height="40" rx="3.203" fill="#30B0E1"/><path d="M27.724 28.59l3.461-17.318c.114-.568-.464-1.033-1.016-.819L9.344 18.515a.832.832 0 00.043 1.575l5.28 1.734 1.97 6.393c.125.405.644.54.96.252l3.155-2.88 4.926 3.746c.754.573 1.864.17 2.046-.744z" fill="#fff"/><path d="M27.284 14.506l-9.707 8.645-.57 5.418c-.182-.08-.377.15-2.354-6.718l12.326-7.73c.258-.162.532.183.305.385z" fill="#D2E5F1"/><path d="M17.703 28.352l3.064-2.763-3.19-2.452-.57 5.432c.256.065.57-.118.696-.217z" fill="#B5CFE4"/></svg>