<svg viewBox="0 0 40 40" fill="none" xmlns="http://www.w3.org/2000/svg"><rect width="40" height="40" rx="3.203" fill="#4680C2"/><path d="M26.924 21.476c.637.622 1.31 1.207 1.88 1.892.253.304.492.618.674.97.26.502.025 1.055-.425 1.085l-2.797-.002c-.722.06-1.297-.23-1.781-.723-.387-.395-.746-.815-1.118-1.223a2.647 2.647 0 00-.504-.447c-.382-.248-.713-.172-.931.226-.222.405-.273.854-.295 1.305-.03.659-.229.832-.89.862-1.414.067-2.756-.147-4.003-.86-1.099-.629-1.951-1.517-2.693-2.522-1.444-1.957-2.55-4.107-3.544-6.318-.224-.498-.06-.765.49-.774a75.75 75.75 0 012.738-.002c.37.006.616.219.76.569a16.978 16.978 0 001.855 3.44c.202.284.408.57.701.77.325.222.572.148.724-.213.097-.23.14-.476.161-.721.073-.845.082-1.687-.045-2.529-.078-.525-.373-.864-.897-.964-.268-.05-.228-.15-.098-.303.224-.263.436-.427.858-.427h3.16c.498.099.609.322.677.823l.003 3.511c-.006.194.096.77.446.898.28.091.463-.133.631-.31.757-.803 1.297-1.752 1.78-2.735.214-.433.398-.882.576-1.33.133-.333.34-.497.715-.49l3.043.003c.09 0 .181.002.268.017.513.087.654.307.495.808-.25.786-.735 1.44-1.21 2.098-.507.702-1.05 1.38-1.552 2.086-.463.645-.426.97.148 1.53z" fill="#F4F4F4"/></svg>